<?xml version="1.0" encoding="utf-8"?>
<!-- Generator: Adobe Illustrator 26.0.0, SVG Export Plug-In . SVG Version: 6.00 Build 0)  -->
<svg version="1.1" id="Layer_1" xmlns="http://www.w3.org/2000/svg" xmlns:xlink="http://www.w3.org/1999/xlink" x="0px" y="0px"
	 viewBox="0 0 532 532" style="enable-background:new 0 0 532 532;" xml:space="preserve">
<style type="text/css">
	.st0{fill:#EFEFEF;}
	.st1{fill:#FFFFFF;}
	.st2{fill:#CECEDD;}
	.st3{fill:#3F3D56;}
	.st4{fill:#E07A5F;}
	.st5{fill:#F2F2F2;}
</style>
<path class="st0" d="M530,266c0,66.7-24.8,127.6-65.7,174.1c-2.5,2.8-5.1,5.6-7.7,8.4c-4.1,4.2-8.3,8.4-12.6,12.3
	c-1.7,1.5-3.3,3-5,4.5c-17.1,14.8-36.1,27.5-56.6,37.6c-7.2,3.5-14.6,6.8-22.1,9.7C331,523.8,299.2,530,266,530
	c-32,0-62.8-5.7-91.2-16.2c-11.7-4.3-23-9.4-33.8-15.3c-1.6-0.9-3.2-1.7-4.7-2.6c-8.3-4.7-16.2-9.8-23.9-15.3
	c-5.7-4.1-11.3-8.4-16.7-13c-1.9-1.6-3.7-3.2-5.6-4.8c-3-2.7-5.9-5.4-8.8-8.2c-5.4-5.3-10.6-10.8-15.5-16.5
	C26.1,391.8,2,331.6,2,266C2,120.4,120.4,2,266,2S530,120.4,530,266z"/>
<path class="st1" d="M454.1,77.9C403.8,27.7,337,0,266,0S128.2,27.7,77.9,77.9C27.7,128.1,0,194.9,0,266c0,64.8,23,126.2,65.3,174.6
	c4,4.6,8.2,9.1,12.6,13.5l3.1,3.1c2.8,2.7,5.6,5.4,8.5,7.9c1.8,1.6,3.5,3.1,5.3,4.6c1.4,1.2,2.8,2.4,4.2,3.5c0,0,0.1,0,0.1,0.1
	c47.1,38,105.3,58.7,166.8,58.7c66.6,0,129.5-24.3,178.5-68.8c3.3-3,6.5-6,9.6-9.2c1-1,2-2,2.9-3c2.7-2.8,5.3-5.6,7.9-8.5
	C508.3,393.9,532,331.8,532,266C532,194.9,504.3,128.1,454.1,77.9z M464.3,440.1c-2.5,2.8-5.1,5.6-7.7,8.4
	c-4.1,4.2-8.3,8.4-12.6,12.3c-1.7,1.5-3.3,3-5,4.5c-17.1,14.8-36.1,27.5-56.6,37.6c-7.2,3.5-14.6,6.8-22.1,9.7
	C331,523.8,299.2,530,266,530c-32,0-62.8-5.7-91.2-16.2c-11.7-4.3-23-9.4-33.8-15.3c-1.6-0.9-3.2-1.7-4.7-2.6
	c-8.3-4.7-16.2-9.8-23.9-15.3c-5.7-4.1-11.3-8.4-16.7-13c-1.9-1.6-3.7-3.2-5.6-4.8c-3-2.7-5.9-5.4-8.8-8.2
	c-5.4-5.3-10.6-10.8-15.5-16.5C26.1,391.8,2,331.6,2,266C2,120.4,120.4,2,266,2s264,118.4,264,264
	C530,332.7,505.2,393.6,464.3,440.1z"/>
<g>
	<path class="st2" d="M174,89.6c-1,0.1-1.9,0.2-2.8,0.3c-21.6,3-36.7,23-33.7,44.6c2.3,16.7,15,30.1,31.6,33.4
		c0.9,0.2,1.9,0.3,2.8,0.4C162.4,142.7,163.2,114.5,174,89.6L174,89.6z"/>
	<path class="st2" d="M360.8,89.9c-0.9-0.1-1.9-0.2-2.8-0.3c10.8,25,11.6,53.2,2.1,78.7c1-0.1,1.9-0.3,2.8-0.4
		c21.4-4.2,35.4-24.9,31.3-46.3C391,104.9,377.6,92.2,360.8,89.9L360.8,89.9z"/>
	<circle class="st3" cx="266" cy="371.1" r="112.7"/>
	<path class="st3" d="M371.5,134.5c0,12.5-2.2,25-6.6,36.7c-20.3,54.5-81,82.3-135.5,62c-54.5-20.3-82.3-81-62-135.5
		c20.3-54.5,81-82.3,135.5-62C344.1,51.1,371.5,90.5,371.5,134.5z"/>
	<path class="st2" d="M206.4,466.5c16.7,10.8,36,16.8,55.8,17.5c-0.4,0.8-0.8,1.7-1.2,2.5c-2.3,4.3-5.6,7.9-9.5,10.7
		c-14.1,10-33.7,6.6-43.6-7.6c-3.7-5.3-5.7-11.6-5.7-18v-5.1H206.4z"/>
	<path class="st2" d="M323.4,468v3.6c0,17.3-14,31.3-31.3,31.3c-11.5,0-22-6.3-27.5-16.3c-0.5-0.8-0.9-1.7-1.2-2.5
		c0.9,0,1.8,0,2.7,0C286.3,484.1,306.1,478.5,323.4,468z"/>
	<path class="st4" d="M321.3,107.1H210.9c-12.1,0-22,9.8-22,22s9.8,22,22,22h110.4c12.1,0,22-9.8,22-22S333.4,107.1,321.3,107.1z"/>
	<path class="st3" d="M266.1,258.2c-62.4,0-112.9,50.6-112.9,113c0,60.3,47.5,110,107.8,112.7c1.2,0.1,2.4,0.1,3.6,0.1
		c0.5,0,1,0,1.5,0c62.4,0,112.9-50.6,112.9-112.9S328.4,258.2,266.1,258.2L266.1,258.2z M323.4,465.5
		c-17.3,10.5-37.1,16.1-57.3,16.1c-0.9,0-1.8,0-2.7,0c-0.4,0-0.8,0-1.2,0c-61-2.1-108.7-53.3-106.6-114.2s53.3-108.7,114.2-106.6
		s108.7,53.3,106.6,114.2C375.1,412.1,355.2,446.1,323.4,465.5L323.4,465.5z"/>
	<path class="st2" d="M345.3,345.8H296c-7.2,0-13-5.8-13-13c0-7.2,5.8-12.9,13-13h49.3c7.2,0,13,5.8,13,13
		C358.3,340,352.5,345.8,345.3,345.8z"/>
	<circle class="st5" cx="299.3" cy="332.9" r="6.6"/>
	<circle class="st5" cx="320.6" cy="332.9" r="6.6"/>
	<circle class="st4" cx="342" cy="332.9" r="6.6"/>
</g>
</svg>
